<svg width="113" height="29" viewBox="0 0 113 29" fill="none" xmlns="http://www.w3.org/2000/svg">
<path d="M9.92 28.32C8.10667 28.32 6.6 28.2 5.4 27.96C4.2 27.72 3.24 27.3467 2.52 26.84C1.82667 26.3067 1.29333 25.64 0.92 24.84C0.573333 24.0133 0.346667 23.0267 0.24 21.88C0.16 20.7067 0.12 19.36 0.12 17.84C0.12 16.0267 0.213333 14.4533 0.4 13.12C0.586667 11.7867 0.973333 10.6933 1.56 9.84C2.17333 8.96 3.10667 8.32 4.36 7.92C5.64 7.49333 7.33333 7.28 9.44 7.28C11.1467 7.28 12.5333 7.41333 13.6 7.68C14.6667 7.94667 15.5067 8.34667 16.12 8.88C16.76 9.41333 17.2133 10.1067 17.48 10.96C17.7733 11.7867 17.96 12.7733 18.04 13.92C18.12 15.0667 18.16 16.3733 18.16 17.84V19.4H5.4C5.4 20.4133 5.44 21.24 5.52 21.88C5.62667 22.4933 5.85333 22.96 6.2 23.28C6.57333 23.6 7.14667 23.8133 7.92 23.92C8.72 24.0267 9.8 24.08 11.16 24.08C11.72 24.08 12.3467 24.0667 13.04 24.04C13.76 24.0133 14.4933 23.9733 15.24 23.92C16.0133 23.8667 16.72 23.8133 17.36 23.76V27.68C16.7733 27.8133 16.0533 27.92 15.2 28C14.3733 28.1067 13.4933 28.1867 12.56 28.24C11.6533 28.2933 10.7733 28.32 9.92 28.32ZM13.12 16.76V16.12C13.12 15.08 13.0533 14.2533 12.92 13.64C12.8133 13 12.6133 12.52 12.32 12.2C12.0533 11.88 11.68 11.68 11.2 11.6C10.72 11.4933 10.1067 11.44 9.36 11.44C8.48 11.44 7.78667 11.5067 7.28 11.64C6.77333 11.7467 6.38667 11.9733 6.12 12.32C5.85333 12.64 5.66667 13.12 5.56 13.76C5.45333 14.3733 5.4 15.16 5.4 16.12H13.84L13.12 16.76Z" fill="url(#paint0_linear_2_64)"/>
<path d="M23.7056 28V0.479999H40.4256V2.76H26.2656V13.56H38.9456V15.8H26.2656V28H23.7056ZM44.8847 28V7.6H47.0047L47.1647 11.72H47.3647C47.6847 10.52 48.178 9.6 48.8447 8.96C49.5114 8.29333 50.298 7.85333 51.2047 7.64C52.138 7.4 53.1647 7.28 54.2847 7.28V9.72C52.3914 9.72 50.938 10.04 49.9247 10.68C48.938 11.2933 48.258 12.24 47.8847 13.52C47.5114 14.8 47.3247 16.3733 47.3247 18.24V28H44.8847ZM65.9881 28.32C64.3348 28.32 62.9615 28.2267 61.8681 28.04C60.8015 27.8533 59.9481 27.5333 59.3081 27.08C58.6681 26.6267 58.2015 26 57.9081 25.2C57.6148 24.4 57.4148 23.4 57.3081 22.2C57.2281 20.9733 57.1881 19.5067 57.1881 17.8C57.1881 16.0933 57.2281 14.64 57.3081 13.44C57.4148 12.2133 57.6148 11.2 57.9081 10.4C58.2015 9.6 58.6681 8.97333 59.3081 8.52C59.9481 8.06667 60.8015 7.74667 61.8681 7.56C62.9615 7.37333 64.3348 7.28 65.9881 7.28C67.6415 7.28 69.0015 7.37333 70.0681 7.56C71.1615 7.74667 72.0281 8.06667 72.6681 8.52C73.3081 8.97333 73.7748 9.6 74.0681 10.4C74.3881 11.2 74.5881 12.2133 74.6681 13.44C74.7481 14.64 74.7881 16.0933 74.7881 17.8C74.7881 19.5067 74.7481 20.9733 74.6681 22.2C74.5881 23.4 74.3881 24.4 74.0681 25.2C73.7748 26 73.3081 26.6267 72.6681 27.08C72.0281 27.5333 71.1615 27.8533 70.0681 28.04C69.0015 28.2267 67.6415 28.32 65.9881 28.32ZM65.9881 26.2C67.5881 26.2 68.8148 26.0933 69.6681 25.88C70.5481 25.6667 71.1748 25.28 71.5481 24.72C71.9215 24.1333 72.1481 23.2933 72.2281 22.2C72.3081 21.08 72.3481 19.6133 72.3481 17.8C72.3481 16.0133 72.3081 14.56 72.2281 13.44C72.1481 12.32 71.9215 11.4667 71.5481 10.88C71.1748 10.2933 70.5481 9.90667 69.6681 9.72C68.8148 9.50667 67.5881 9.4 65.9881 9.4C64.4148 9.4 63.1881 9.50667 62.3081 9.72C61.4281 9.90667 60.8015 10.2933 60.4281 10.88C60.0548 11.4667 59.8281 12.32 59.7481 13.44C59.6681 14.56 59.6281 16.0133 59.6281 17.8C59.6281 19.6133 59.6681 21.08 59.7481 22.2C59.8281 23.2933 60.0548 24.1333 60.4281 24.72C60.8015 25.28 61.4281 25.6667 62.3081 25.88C63.1881 26.0933 64.4148 26.2 65.9881 26.2ZM80.4331 28V7.6H82.5931L82.7131 10.72H82.9131C83.1798 10.0533 83.5531 9.46667 84.0331 8.96C84.5398 8.45333 85.2598 8.05333 86.1931 7.76C87.1531 7.44 88.3931 7.28 89.9131 7.28C91.4598 7.28 92.6998 7.44 93.6331 7.76C94.5931 8.05333 95.3265 8.52 95.8331 9.16C96.3398 9.77333 96.6731 10.5867 96.8331 11.6C97.0198 12.6133 97.1131 13.8133 97.1131 15.2V28H94.6731V15.96C94.6731 14.52 94.6065 13.3733 94.4731 12.52C94.3398 11.6667 94.0731 11.0267 93.6731 10.6C93.2731 10.1467 92.6998 9.85333 91.9531 9.72C91.2065 9.56 90.2331 9.48 89.0331 9.48C87.5398 9.48 86.3665 9.68 85.5131 10.08C84.6865 10.4533 84.0865 11 83.7131 11.72C83.3398 12.4133 83.0998 13.2533 82.9931 14.24C82.9131 15.2 82.8731 16.2667 82.8731 17.44V28H80.4331ZM105.297 28V9.72H101.097V7.6H105.297V1.68H107.737V7.6H112.697V9.72H107.737V28H105.297Z" fill="#F9F9F9"/>
<defs>
<linearGradient id="paint0_linear_2_64" x1="114" y1="-17" x2="105.114" y2="58.5917" gradientUnits="userSpaceOnUse">
<stop stop-color="#04D361"/>
<stop offset="1" stop-color="#0F5A31"/>
</linearGradient>
</defs>
</svg>
